Coordinates
version=1
nRows=13
nColumns=36
inDegrees=yes

Units are S.I. units (second, meters, Newtons, ...)
If the header above contains a line with 'inDegrees', this indicates whether rotational values are in degrees (yes) or radians (no).

endheader
time	pelvis_tilt	pelvis_list	pelvis_rotation	pelvis_tx	pelvis_ty	pelvis_tz	hip_flexion_r	hip_adduction_r	hip_rotation_r	knee_angle_r	knee_angle_r_beta	ankle_angle_r	subtalar_angle_r	mtp_angle_r	hip_flexion_l	hip_adduction_l	hip_rotation_l	knee_angle_l	knee_angle_l_beta	ankle_angle_l	subtalar_angle_l	mtp_angle_l	lumbar_extension	lumbar_bending	lumbar_rotation	arm_flex_r	arm_add_r	arm_rot_r	elbow_flex_r	pro_sup_r	arm_flex_l	arm_add_l	arm_rot_l	elbow_flex_l	pro_sup_l
      0.00000000	      4.91934561	     -2.67305731	     -2.78875660	     -0.92157327	      1.26341119	     -0.12340742	      2.09705590	      1.81993616	      0.86341166	     18.10549327	      0.31600047	      6.99478151	    -17.66279021	     -6.45271467	     -9.15492081	     -0.36568735	      3.30553734	      1.73584583	      0.03029623	      9.75819694	     -6.00015888	     -6.45271467	    -12.19954067	      2.93060320	     -3.74557378	      7.20481616	     -8.57198433	     26.06388784	     26.45883153	     69.69466752	      4.98120031	     -7.83378819	     23.12247519	     23.54880950	     62.83677465
      0.00416670	      3.50455285	     -1.60058047	     -2.61361575	     -0.92105158	      1.26151199	     -0.12242879	      4.05366264	      1.25279985	      2.05539504	     19.06872161	      0.33281198	     10.54197783	    -15.75265169	     -6.73741814	     -7.24926212	      0.98568000	      4.15735839	      2.02086532	      0.03527075	      9.71930405	     -5.50108202	     -6.73741814	    -10.02761079	      1.79023730	     -4.21287680	      6.58681319	     -7.74312874	     24.26437093	     26.00927872	     68.81308719	      4.91180530	     -7.52281228	     21.41051567	     22.78727069	     62.53531272
      0.00833330	      2.76987575	     -0.86141445	     -2.65369120	     -0.91795617	      1.25736730	     -0.11854347	      4.56152984	      0.56202153	      1.20408019	     18.47099448	      0.32237967	     11.82388332	    -14.72037594	     -7.02317721	     -6.63608276	      1.59393027	      4.62424851	      1.92658857	      0.03362531	      9.37380594	     -6.32721359	     -7.02317721	     -9.09325237	      0.62315900	     -3.94894449	      5.34755406	     -6.85725426	     18.23973884	     27.11053629	     79.56331503	      4.71424598	     -7.88158612	     18.63882475	     23.31045915	     69.37604313
      0.01250000	      3.00757207	     -0.64954796	     -2.81327010	     -0.92066790	      1.26290121	     -0.11962493	      4.23808295	      0.23926168	      1.01457561	     18.22616682	      0.31810662	     11.88059484	    -14.88994406	     -7.03595610	     -7.26488376	      1.90526123	      4.91785467	      1.36888959	      0.02389163	      9.12122307	     -6.44244158	     -7.03595610	     -9.61839653	      0.27318634	     -3.74318888	      5.22549772	     -6.79974181	     18.05906070	     27.66420827	     79.52263694	      4.88888155	     -8.27062233	     18.84146228	     23.63585155	     69.54172970
      0.01666670	      2.98704517	     -0.59110713	     -2.80809908	     -0.92047356	      1.26758982	     -0.11975838	      4.00827067	      0.15808887	      0.64999130	     17.57154303	      0.30668128	     11.51905655	    -14.96676725	     -7.04256060	     -7.41257372	      1.99469994	      4.97230351	      1.04850946	      0.01829994	      8.89111658	     -6.51467144	     -7.04256060	     -9.76358445	      0.19659630	     -3.71765140	      5.00943852	     -6.82954415	     18.21967042	     28.08544267	     79.53027976	      5.00289961	     -8.30522581	     19.22987669	     23.80648161	     69.70919303
      0.02083330	      3.18046812	     -0.57054189	     -2.83116443	     -0.92395122	      1.26409063	     -0.11925728	      3.83263816	      0.14773171	      0.44635137	     17.38688892	      0.30345846	     10.73997974	    -15.98916709	     -7.09885414	     -7.53731757	      2.06376975	      5.12162390	      0.97714651	      0.01705442	      8.80223828	     -6.98985568	     -7.09885414	    -10.40060291	      0.17043747	     -3.45699861	      5.07258411	     -7.29820977	     19.73334998	     29.01459889	     79.06696370	      5.67864682	     -8.59591066	     21.46421522	     23.98956353	     70.46689694
      0.02500000	      3.30559010	     -0.52836864	     -2.77168394	     -0.92419680	      1.26625018	     -0.11859043	      3.71518782	      0.08335432	      0.02480148	     17.13506651	      0.29906333	     10.51728006	    -15.97949433	     -7.25148453	     -7.57017574	      2.09297241	      5.06478268	      0.99162771	      0.01730717	      8.73075757	     -7.09855373	     -7.25148453	    -10.81174368	      0.10637566	     -3.39773464	      5.22442220	     -7.42573234	     20.59504723	     29.26345190	     74.95085069	      6.16244904	     -8.54944513	     22.03184845	     24.10495688	     68.20555949
      0.02916670	      3.19780602	     -0.48393468	     -2.67308524	     -0.92510265	      1.26919716	     -0.11767926	      3.67677032	      0.18232871	      0.25379188	     16.59646104	      0.28966289	      9.56080665	    -16.81640066	     -7.34813496	     -7.35189261	      2.07820856	      5.44022173	      0.95678206	      0.01669900	      8.26274568	     -7.76735520	     -7.34813496	    -10.86065597	      0.02921336	     -3.50248040	      5.48430085	     -7.87996239	     23.52780378	     29.36496523	     74.00532662	      6.63234976	     -8.82405159	     24.35683237	     24.02373406	     68.32281594
      0.03333330	      3.21902536	     -0.48167096	     -2.55330811	     -0.92558773	      1.26844630	     -0.11904096	      3.52717840	      0.21036275	      0.26596008	     16.21362413	      0.28298112	      9.30674063	    -16.82272844	     -7.41462539	     -7.24613908	      2.02720668	      5.66872255	      0.97488633	      0.01701498	      8.00682539	     -8.05893337	     -7.41462539	    -11.06884926	      0.06899225	     -3.66803666	      5.68746981	     -8.14287264	     24.88816553	     29.45680005	     73.11297048	      6.95404160	     -8.84122213	     25.20953230	     24.08311272	     67.96960210
      0.03750000	      3.27188968	     -0.45826482	     -2.41419362	     -0.92580980	      1.26491744	     -0.11941364	      3.41018495	      0.20900798	      0.20144845	     15.97754632	      0.27886079	      9.21446283	    -16.70815780	     -7.44509779	     -7.18921314	      2.02462048	      5.99549956	      0.99692942	      0.01739970	      7.81534974	     -8.41567782	     -7.44509779	    -11.34594407	      0.08836154	     -3.80737917	      5.70870252	     -8.25678674	     24.41583971	     29.68015886	     76.84706512	      7.16067869	     -8.77884153	     24.74229171	     24.26424153	     70.42681309
      0.04166670	      3.24692244	     -0.46017861	     -2.32311210	     -0.92509271	      1.26911956	     -0.11945726	      3.26828648	      0.23382701	      0.38741852	     15.58727868	      0.27204933	      8.95560809	    -16.71326305	     -7.47663643	     -7.14077404	      1.97878456	      6.23477252	      0.98006355	      0.01710534	      7.55058353	     -8.59581346	     -7.47663643	    -11.33939638	      0.15918991	     -3.87395356	      5.75028824	     -8.60553394	     25.97865872	     29.92388149	     72.57116025	      7.25318647	     -8.74659161	     25.70826906	     24.39609151	     67.54316203
      0.04583330	      3.22790001	     -0.45425449	     -2.19353811	     -0.92802585	      1.26244259	     -0.12049456	      3.30639038	      0.20520933	      0.38464950	     15.49729049	      0.27047874	      8.96594480	    -16.87667049	     -7.47791932	     -6.99250655	      2.00019051	      6.48519876	      1.07863310	      0.01882570	      7.72651797	     -8.68904314	     -7.47791932	    -11.45698566	      0.25498588	     -4.06206811	      5.87342136	     -8.84816866	     26.37067268	     30.17472267	     73.51062436	      7.33569499	     -8.85948340	     26.11732247	     24.79217690	     68.17782826
      0.05000000	      3.28221097	     -0.44469868	     -2.04475732	     -0.92894550	      1.26450609	     -0.11845814	      3.18221808	      0.17917809	     -0.18256909	     15.46351557	      0.26988926	      9.32428602	    -16.12222036	     -7.48578686	     -6.91451785	      1.99483889	      6.68953229	      1.15704077	      0.02019417	      7.76722237	     -8.61271174	     -7.48578686	    -11.61451617	      0.26109449	     -4.33089145	      6.07937277	     -8.76205255	     26.26894513	     29.98456963	     70.91952657	      7.38120941	     -8.86978550	     26.04322837	     24.98158009	     66.49274161
